<?xml version="1.0" encoding="iso-8859-1"?>
<!-- Generator: Adobe Illustrator 19.0.0, SVG Export Plug-In . SVG Version: 6.00 Build 0)  -->
<svg version="1.1" id="Capa_1" xmlns="http://www.w3.org/2000/svg" xmlns:xlink="http://www.w3.org/1999/xlink" x="0px" y="0px"
	 viewBox="0 0 512 512" style="enable-background:new 0 0 512 512;" xml:space="preserve">
<path style="fill:#FF8B5C;" d="M332.036,131.699l-0.179-0.067c-14.979-5.625-25.043-20.155-25.043-36.156V15c0-8.284-6.716-15-15-15
	h-71.628c-8.284,0-15,6.716-15,15v80.476c0,16-10.064,30.53-25.04,36.155l-0.185,0.069c-24.271,9.116-40.578,32.659-40.578,58.584
	V497c0,8.284,6.716,15,15,15h203.233c8.284,0,15-6.716,15-15V190.285C372.617,164.359,356.31,140.816,332.036,131.699z"/>
<path style="fill:#FFBA73;" d="M255.102,0h-34.916c-8.284,0-15,6.716-15,15v80.476c0,16-10.064,30.53-25.04,36.155l-0.185,0.069
	c-24.271,9.116-40.578,32.659-40.578,58.584V497c0,8.284,6.716,15,15,15h100.719L255.102,0L255.102,0z"/>
<path style="fill:#465066;" d="M306.814,15c0-8.284-6.716-15-15-15h-71.628c-8.284,0-15,6.716-15,15v70.476h101.628V15z"/>
<path style="fill:#677189;" d="M255.102,0h-34.916c-8.284,0-15,6.716-15,15v70.476h49.916V0z"/>
<polygon style="fill:#823957;" points="139.383,250.638 139.383,345.237 372.617,306.039 372.617,211.523 "/>
<polygon style="fill:#BA527C;" points="139.383,250.638 139.383,345.237 255.102,325.789 255.103,231.231 "/>
<g>
</g>
<g>
</g>
<g>
</g>
<g>
</g>
<g>
</g>
<g>
</g>
<g>
</g>
<g>
</g>
<g>
</g>
<g>
</g>
<g>
</g>
<g>
</g>
<g>
</g>
<g>
</g>
<g>
</g>
</svg>
